<svg xmlns="http://www.w3.org/2000/svg" xmlns:xlink="http://www.w3.org/1999/xlink" width="500" zoomAndPan="magnify" viewBox="0 0 375 374.999991" height="500" preserveAspectRatio="xMidYMid meet" version="1.0"><defs><g/><clipPath id="2e6d83c603"><path d="M 88 131.402344 L 150 131.402344 L 150 207.902344 L 88 207.902344 Z M 88 131.402344 " clip-rule="nonzero"/></clipPath><clipPath id="40c8c3786c"><path d="M 219 186 L 285.960938 186 L 285.960938 189 L 219 189 Z M 219 186 " clip-rule="nonzero"/></clipPath><clipPath id="52b0a62c3a"><path d="M 211 184.238281 L 218 184.238281 L 218 190.652344 L 211 190.652344 Z M 211 184.238281 " clip-rule="nonzero"/></clipPath><clipPath id="1faf42e38b"><path d="M 71 176 L 100 176 L 100 193 L 71 193 Z M 71 176 " clip-rule="nonzero"/></clipPath><clipPath id="40a9dbb150"><path d="M 95.078125 211.644531 L 70.660156 183.1875 L 87.734375 168.535156 L 112.15625 196.992188 Z M 95.078125 211.644531 " clip-rule="nonzero"/></clipPath><clipPath id="9312779c9f"><path d="M 95.078125 211.644531 L 70.660156 183.1875 L 87.734375 168.535156 L 112.15625 196.992188 Z M 95.078125 211.644531 " clip-rule="nonzero"/></clipPath><clipPath id="6ae359570a"><path d="M 95.078125 211.644531 L 70.660156 183.1875 L 87.734375 168.535156 L 112.15625 196.992188 Z M 95.078125 211.644531 " clip-rule="nonzero"/></clipPath><clipPath id="a224810d04"><path d="M 94 186 L 107 186 L 107 207 L 94 207 Z M 94 186 " clip-rule="nonzero"/></clipPath><clipPath id="566617af54"><path d="M 95.078125 211.644531 L 70.660156 183.1875 L 87.734375 168.535156 L 112.15625 196.992188 Z M 95.078125 211.644531 " clip-rule="nonzero"/></clipPath><clipPath id="99762956e4"><path d="M 95.078125 211.644531 L 70.660156 183.1875 L 87.734375 168.535156 L 112.15625 196.992188 Z M 95.078125 211.644531 " clip-rule="nonzero"/></clipPath><clipPath id="4a163dae6d"><path d="M 95.078125 211.644531 L 70.660156 183.1875 L 87.734375 168.535156 L 112.15625 196.992188 Z M 95.078125 211.644531 " clip-rule="nonzero"/></clipPath></defs><rect x="-37.5" width="450" fill="#ffffff" y="-37.499999" height="449.999989" fill-opacity="1"/><rect x="-37.5" width="450" fill="#f2f2f2" y="-37.499999" height="449.999989" fill-opacity="1"/><g clip-path="url(#2e6d83c603)"><path fill="#000000" d="M 148.449219 197.234375 C 148.445312 197.226562 148.441406 197.222656 148.4375 197.214844 C 148.421875 197.191406 148.402344 197.164062 148.386719 197.140625 C 148.359375 197.097656 148.328125 197.054688 148.300781 197.015625 C 148.28125 196.992188 148.265625 196.964844 148.25 196.945312 C 148.214844 196.898438 148.183594 196.851562 148.148438 196.808594 C 148.132812 196.789062 148.117188 196.769531 148.101562 196.746094 C 148.054688 196.683594 148.003906 196.617188 147.949219 196.554688 C 146.234375 196.910156 144.464844 196.992188 142.710938 196.710938 C 129.011719 194.667969 131.792969 180.171875 128.722656 170.191406 C 127.1875 164.199219 124.582031 158.515625 123.367188 152.445312 C 122.222656 146.394531 122.765625 140.132812 122.839844 134.085938 C 122.242188 139.652344 120.703125 145.199219 121.335938 150.867188 C 121.957031 157.714844 125.285156 163.902344 126.84375 170.535156 C 128.550781 176.300781 128.3125 182.421875 129.957031 188.183594 C 131.433594 193.613281 136.183594 198.203125 141.964844 198.394531 C 144.078125 198.609375 146.15625 198.214844 148.070312 197.398438 C 149.285156 201 147.136719 204.046875 142.394531 204.660156 C 140.261719 204.820312 138.101562 204.382812 136.085938 203.597656 C 135.941406 203.539062 135.792969 203.480469 135.648438 203.417969 C 135.625 203.410156 135.605469 203.398438 135.582031 203.390625 C 135.445312 203.332031 135.308594 203.273438 135.171875 203.210938 C 134.523438 202.917969 133.890625 202.589844 133.28125 202.234375 C 133.710938 202.691406 134.175781 203.105469 134.671875 203.488281 C 133.542969 204.179688 132.347656 204.75 131.0625 205.101562 C 123.328125 207.128906 117.359375 203.078125 115.140625 195.613281 C 114.128906 189.867188 113.332031 183.605469 108.859375 179.382812 C 106.464844 177.027344 103.511719 175.332031 100.496094 173.902344 C 96.175781 172.132812 91.304688 169.148438 91.183594 163.925781 C 91.425781 159.980469 94.992188 157.371094 97.046875 154.285156 C 99.609375 150.660156 100.585938 147.347656 100.585938 144.042969 C 100.585938 140.015625 99.136719 135.992188 97.332031 131.40625 C 97.335938 131.40625 97.332031 131.402344 97.332031 131.402344 C 99.140625 137.929688 99.828125 145.292969 96.320312 151.394531 C 94.808594 153.90625 92.699219 155.96875 90.960938 158.3125 C 86.769531 162.96875 89.4375 169.1875 93.332031 173.070312 C 96.617188 176.066406 100.960938 177.46875 104.628906 179.890625 C 109.09375 182.558594 111.410156 187.078125 112.207031 192.097656 C 113.28125 199.019531 117.761719 206.867188 125.429688 207.445312 C 129.46875 207.902344 132.828125 206.519531 135.574219 204.117188 C 137.503906 205.335938 139.777344 206.035156 142.042969 206.128906 C 147.261719 206.230469 151.257812 201.566406 148.449219 197.234375 Z M 148.449219 197.234375 " fill-opacity="1" fill-rule="nonzero"/></g><path fill="#000000" d="M 106.03125 156.285156 C 106.03125 156.285156 106.027344 156.285156 106.027344 156.285156 C 106.027344 156.289062 106.027344 156.289062 106.027344 156.289062 C 106.027344 156.289062 106.027344 156.289062 106.03125 156.285156 Z M 106.03125 156.285156 " fill-opacity="1" fill-rule="nonzero"/><path fill="#000000" d="M 105.914062 164.574219 C 106.332031 164.796875 106.773438 164.949219 107.226562 165.074219 C 106.570312 164.550781 105.902344 163.980469 105.484375 163.234375 C 104.195312 161.085938 104.804688 158.332031 106.023438 156.289062 C 103.292969 158.667969 102.359375 162.355469 105.914062 164.574219 Z M 105.914062 164.574219 " fill-opacity="1" fill-rule="nonzero"/><path fill="#000000" d="M 119.253906 138.675781 C 119.253906 138.675781 119.25 138.675781 119.25 138.675781 C 119.25 138.679688 119.25 138.679688 119.25 138.683594 C 119.25 138.679688 119.25 138.679688 119.253906 138.675781 Z M 119.253906 138.675781 " fill-opacity="1" fill-rule="nonzero"/><path fill="#000000" d="M 120.453125 159.574219 C 121.738281 162.019531 122.636719 164.640625 123.5625 167.246094 C 121.34375 157.953125 116.125 148.367188 119.25 138.683594 C 118.363281 140.480469 117.816406 142.535156 117.386719 144.519531 C 116.882812 147.613281 117.203125 150.839844 117.949219 153.871094 C 118.515625 155.875 119.488281 157.734375 120.453125 159.574219 Z M 120.453125 159.574219 " fill-opacity="1" fill-rule="nonzero"/><path fill="#000000" d="M 124.003906 202.8125 C 124.367188 202.964844 127.574219 202.941406 126.53125 202.8125 C 123.351562 202.53125 120.660156 200.460938 119.167969 197.691406 C 118.089844 195.746094 117.125 193.632812 116.941406 191.394531 C 116.757812 196.011719 118.898438 201.921875 124.003906 202.8125 Z M 124.003906 202.8125 " fill-opacity="1" fill-rule="nonzero"/><path fill="#000000" d="M 210.125 188.136719 L 210.125 187.710938 L 184 187.429688 L 210.125 187.148438 L 210.125 186.722656 L 144.136719 187.429688 Z M 210.125 188.136719 " fill-opacity="1" fill-rule="nonzero"/><g clip-path="url(#40c8c3786c)"><path fill="#000000" d="M 219.285156 186.722656 L 219.285156 187.148438 L 245.414062 187.429688 L 219.285156 187.710938 L 219.285156 188.136719 L 285.277344 187.429688 Z M 219.285156 186.722656 " fill-opacity="1" fill-rule="nonzero"/></g><g clip-path="url(#52b0a62c3a)"><path fill="#000000" d="M 217.832031 187.148438 C 217.765625 187.050781 217.675781 186.96875 217.578125 186.902344 C 217.515625 186.859375 217.449219 186.820312 217.382812 186.785156 C 217.316406 186.753906 217.246094 186.722656 217.171875 186.695312 C 217.183594 186.652344 217.191406 186.613281 217.191406 186.570312 C 217.191406 186.386719 217.078125 186.199219 216.855469 186.042969 C 216.601562 186.625 215.84375 187.117188 214.816406 187.398438 L 216.976562 185.175781 L 214.734375 187.316406 C 215.015625 186.300781 215.511719 185.550781 216.101562 185.300781 C 215.941406 185.078125 215.753906 184.964844 215.566406 184.964844 C 215.523438 184.964844 215.484375 184.972656 215.441406 184.984375 C 215.414062 184.910156 215.382812 184.84375 215.347656 184.777344 C 215.289062 184.65625 215.214844 184.539062 215.117188 184.445312 C 215.046875 184.367188 214.957031 184.304688 214.859375 184.269531 C 214.761719 184.234375 214.648438 184.230469 214.546875 184.269531 C 214.5 184.285156 214.457031 184.308594 214.417969 184.335938 C 214.316406 184.402344 214.234375 184.488281 214.167969 184.585938 C 214.125 184.644531 214.085938 184.710938 214.050781 184.777344 C 214.019531 184.84375 213.988281 184.914062 213.960938 184.988281 C 213.917969 184.976562 213.878906 184.96875 213.835938 184.96875 C 213.648438 184.96875 213.460938 185.078125 213.300781 185.300781 C 213.890625 185.554688 214.390625 186.308594 214.671875 187.332031 L 212.421875 185.179688 L 214.578125 187.398438 C 213.558594 187.117188 212.804688 186.628906 212.550781 186.042969 C 212.324219 186.203125 212.214844 186.386719 212.214844 186.574219 C 212.214844 186.617188 212.21875 186.65625 212.230469 186.699219 C 212.160156 186.726562 212.089844 186.757812 212.023438 186.789062 C 211.898438 186.851562 211.78125 186.921875 211.6875 187.015625 C 211.609375 187.089844 211.546875 187.175781 211.507812 187.273438 C 211.472656 187.371094 211.472656 187.484375 211.507812 187.582031 C 211.527344 187.628906 211.550781 187.671875 211.578125 187.714844 C 211.644531 187.8125 211.730469 187.894531 211.828125 187.960938 C 211.890625 188.003906 211.957031 188.039062 212.023438 188.074219 C 212.09375 188.105469 212.160156 188.136719 212.234375 188.164062 C 212.222656 188.207031 212.21875 188.246094 212.21875 188.292969 C 212.21875 188.476562 212.328125 188.660156 212.550781 188.820312 C 212.804688 188.234375 213.5625 187.746094 214.589844 187.464844 L 212.425781 189.691406 L 214.671875 187.542969 C 214.390625 188.5625 213.894531 189.3125 213.304688 189.566406 C 213.464844 189.789062 213.652344 189.898438 213.835938 189.898438 C 213.878906 189.898438 213.921875 189.890625 213.964844 189.878906 C 213.992188 189.953125 214.023438 190.019531 214.054688 190.085938 C 214.089844 190.152344 214.128906 190.21875 214.171875 190.28125 C 214.238281 190.375 214.320312 190.464844 214.417969 190.53125 C 214.460938 190.558594 214.503906 190.582031 214.550781 190.597656 C 214.648438 190.632812 214.761719 190.632812 214.863281 190.597656 C 214.960938 190.5625 215.050781 190.496094 215.121094 190.421875 C 215.214844 190.324219 215.289062 190.210938 215.351562 190.089844 C 215.382812 190.023438 215.417969 189.953125 215.441406 189.882812 C 215.484375 189.894531 215.527344 189.898438 215.570312 189.898438 C 215.757812 189.898438 215.945312 189.789062 216.105469 189.566406 C 215.515625 189.320312 215.023438 188.570312 214.738281 187.558594 L 216.976562 189.695312 L 214.804688 187.460938 C 215.835938 187.742188 216.597656 188.234375 216.851562 188.824219 C 217.078125 188.664062 217.1875 188.480469 217.1875 188.292969 C 217.1875 188.25 217.183594 188.210938 217.171875 188.167969 C 217.242188 188.140625 217.3125 188.109375 217.378906 188.078125 C 217.503906 188.015625 217.617188 187.945312 217.714844 187.847656 C 217.789062 187.777344 217.855469 187.691406 217.890625 187.59375 C 217.925781 187.492188 217.929688 187.382812 217.890625 187.28125 C 217.875 187.238281 217.851562 187.195312 217.824219 187.152344 Z M 217.832031 187.148438 " fill-opacity="1" fill-rule="nonzero"/></g><g fill="#000000" fill-opacity="1"><g transform="translate(133.612635, 181.354595)"><g><path d="M 2.375 -3.8125 C 2.351562 -3.707031 2.320312 -3.617188 2.28125 -3.546875 C 2.238281 -3.484375 2.164062 -3.453125 2.0625 -3.453125 C 1.875 -3.453125 1.765625 -3.570312 1.734375 -3.8125 L 1.375 -6.28125 L 2.734375 -6.28125 Z M 4.5625 -3.8125 C 4.53125 -3.570312 4.421875 -3.453125 4.234375 -3.453125 C 4.117188 -3.453125 4.039062 -3.488281 4 -3.5625 C 3.96875 -3.644531 3.9375 -3.75 3.90625 -3.875 L 3.5625 -6.28125 L 4.921875 -6.28125 Z M 4.5625 -3.8125 "/></g></g></g><g fill="#000000" fill-opacity="1"><g transform="translate(141.037692, 181.354595)"><g><path d="M 2.625 -5.75 C 2.625 -5.601562 2.535156 -5.53125 2.359375 -5.53125 L 1.765625 -5.53125 L 1.765625 -3.3125 L 4.609375 -3.3125 L 4.609375 -5.53125 L 4.015625 -5.53125 C 3.835938 -5.53125 3.75 -5.601562 3.75 -5.75 C 3.75 -5.882812 3.835938 -5.953125 4.015625 -5.953125 L 5.328125 -5.953125 C 5.492188 -5.953125 5.578125 -5.882812 5.578125 -5.75 C 5.578125 -5.601562 5.492188 -5.53125 5.328125 -5.53125 L 5.03125 -5.53125 L 5.03125 -0.421875 L 5.546875 -0.421875 C 5.710938 -0.421875 5.796875 -0.351562 5.796875 -0.21875 C 5.796875 -0.0703125 5.710938 0 5.546875 0 L 4.015625 0 C 3.835938 0 3.75 -0.0703125 3.75 -0.21875 C 3.75 -0.351562 3.835938 -0.421875 4.015625 -0.421875 L 4.609375 -0.421875 L 4.609375 -2.875 L 1.765625 -2.875 L 1.765625 -0.421875 L 2.359375 -0.421875 C 2.535156 -0.421875 2.625 -0.351562 2.625 -0.21875 C 2.625 -0.0703125 2.535156 0 2.359375 0 L 0.828125 0 C 0.648438 0 0.5625 -0.0703125 0.5625 -0.21875 C 0.5625 -0.351562 0.648438 -0.421875 0.828125 -0.421875 L 1.34375 -0.421875 L 1.34375 -5.53125 L 1.03125 -5.53125 C 0.957031 -5.53125 0.894531 -5.546875 0.84375 -5.578125 C 0.800781 -5.617188 0.78125 -5.675781 0.78125 -5.75 C 0.78125 -5.882812 0.867188 -5.953125 1.046875 -5.953125 L 2.359375 -5.953125 C 2.535156 -5.953125 2.625 -5.882812 2.625 -5.75 Z M 2.625 -5.75 "/></g></g></g><g fill="#000000" fill-opacity="1"><g transform="translate(148.462781, 181.354595)"><g><path d="M 3.15625 -6.109375 C 3.632812 -6.109375 4.070312 -5.96875 4.46875 -5.6875 C 4.875 -5.40625 5.191406 -5.023438 5.421875 -4.546875 C 5.648438 -4.066406 5.765625 -3.539062 5.765625 -2.96875 C 5.765625 -2.382812 5.648438 -1.851562 5.421875 -1.375 C 5.191406 -0.90625 4.875 -0.53125 4.46875 -0.25 C 4.070312 0.03125 3.632812 0.171875 3.15625 0.171875 C 2.675781 0.171875 2.234375 0.03125 1.828125 -0.25 C 1.429688 -0.53125 1.117188 -0.90625 0.890625 -1.375 C 0.660156 -1.851562 0.546875 -2.382812 0.546875 -2.96875 C 0.546875 -3.539062 0.660156 -4.066406 0.890625 -4.546875 C 1.117188 -5.023438 1.429688 -5.40625 1.828125 -5.6875 C 2.234375 -5.96875 2.675781 -6.109375 3.15625 -6.109375 Z M 0.984375 -2.96875 C 0.984375 -2.476562 1.078125 -2.023438 1.265625 -1.609375 C 1.460938 -1.191406 1.726562 -0.863281 2.0625 -0.625 C 2.394531 -0.382812 2.757812 -0.265625 3.15625 -0.265625 C 3.550781 -0.265625 3.914062 -0.382812 4.25 -0.625 C 4.582031 -0.863281 4.84375 -1.191406 5.03125 -1.609375 C 5.226562 -2.023438 5.328125 -2.476562 5.328125 -2.96875 C 5.328125 -3.445312 5.234375 -3.890625 5.046875 -4.296875 C 4.859375 -4.710938 4.59375 -5.046875 4.25 -5.296875 C 3.914062 -5.546875 3.550781 -5.671875 3.15625 -5.671875 C 2.757812 -5.671875 2.394531 -5.546875 2.0625 -5.296875 C 1.726562 -5.054688 1.460938 -4.726562 1.265625 -4.3125 C 1.078125 -3.894531 0.984375 -3.445312 0.984375 -2.96875 Z M 0.984375 -2.96875 "/></g></g></g><g fill="#000000" fill-opacity="1"><g transform="translate(155.887838, 181.354595)"><g><path d="M 3.1875 -2.28125 L 4.78125 -5.953125 L 5.859375 -5.953125 C 6.035156 -5.953125 6.125 -5.882812 6.125 -5.75 C 6.125 -5.675781 6.097656 -5.617188 6.046875 -5.578125 C 6.003906 -5.546875 5.941406 -5.53125 5.859375 -5.53125 L 5.578125 -5.53125 L 5.578125 -0.421875 L 5.953125 -0.421875 C 6.128906 -0.421875 6.21875 -0.351562 6.21875 -0.21875 C 6.21875 -0.0703125 6.128906 0 5.953125 0 L 4.328125 0 C 4.148438 0 4.0625 -0.0703125 4.0625 -0.21875 C 4.0625 -0.351562 4.148438 -0.421875 4.328125 -0.421875 L 5.140625 -0.421875 L 5.140625 -5.53125 L 5.046875 -5.53125 L 3.4375 -1.78125 L 2.9375 -1.78125 L 1.296875 -5.53125 L 1.21875 -5.53125 L 1.21875 -0.421875 L 2.03125 -0.421875 C 2.207031 -0.421875 2.296875 -0.351562 2.296875 -0.21875 C 2.296875 -0.0703125 2.207031 0 2.03125 0 L 0.40625 0 C 0.226562 0 0.140625 -0.0703125 0.140625 -0.21875 C 0.140625 -0.351562 0.222656 -0.421875 0.390625 -0.421875 L 0.796875 -0.421875 L 0.796875 -5.53125 L 0.484375 -5.53125 C 0.410156 -5.53125 0.347656 -5.546875 0.296875 -5.578125 C 0.253906 -5.617188 0.234375 -5.675781 0.234375 -5.75 C 0.234375 -5.882812 0.320312 -5.953125 0.5 -5.953125 L 1.578125 -5.953125 Z M 3.1875 -2.28125 "/></g></g></g><g fill="#000000" fill-opacity="1"><g transform="translate(163.312912, 181.354595)"><g><path d="M 5.25 -4.46875 C 5.25 -4.289062 5.179688 -4.203125 5.046875 -4.203125 C 4.898438 -4.203125 4.828125 -4.289062 4.828125 -4.46875 L 4.828125 -5.53125 L 1.765625 -5.53125 L 1.765625 -3.3125 L 3.296875 -3.3125 L 3.296875 -3.8125 C 3.296875 -3.988281 3.363281 -4.078125 3.5 -4.078125 C 3.644531 -4.078125 3.71875 -3.988281 3.71875 -3.8125 L 3.71875 -2.375 C 3.71875 -2.195312 3.644531 -2.109375 3.5 -2.109375 C 3.363281 -2.109375 3.296875 -2.195312 3.296875 -2.375 L 3.296875 -2.875 L 1.765625 -2.875 L 1.765625 -0.421875 L 5.046875 -0.421875 L 5.046875 -1.71875 C 5.046875 -1.894531 5.117188 -1.984375 5.265625 -1.984375 C 5.410156 -1.984375 5.484375 -1.894531 5.484375 -1.71875 L 5.484375 0 L 0.734375 0 C 0.554688 0 0.46875 -0.0703125 0.46875 -0.21875 C 0.46875 -0.351562 0.554688 -0.421875 0.734375 -0.421875 L 1.328125 -0.421875 L 1.328125 -5.53125 L 0.734375 -5.53125 C 0.554688 -5.53125 0.46875 -5.601562 0.46875 -5.75 C 0.46875 -5.882812 0.554688 -5.953125 0.734375 -5.953125 L 5.25 -5.953125 Z M 5.25 -4.46875 "/></g></g></g><g fill="#000000" fill-opacity="1"><g transform="translate(170.737969, 181.354595)"><g/></g></g><g fill="#000000" fill-opacity="1"><g transform="translate(178.163057, 181.354595)"><g><path d="M 3.15625 -6.109375 C 3.632812 -6.109375 4.070312 -5.96875 4.46875 -5.6875 C 4.875 -5.40625 5.191406 -5.023438 5.421875 -4.546875 C 5.648438 -4.066406 5.765625 -3.539062 5.765625 -2.96875 C 5.765625 -2.382812 5.648438 -1.851562 5.421875 -1.375 C 5.191406 -0.90625 4.875 -0.53125 4.46875 -0.25 C 4.070312 0.03125 3.632812 0.171875 3.15625 0.171875 C 2.675781 0.171875 2.234375 0.03125 1.828125 -0.25 C 1.429688 -0.53125 1.117188 -0.90625 0.890625 -1.375 C 0.660156 -1.851562 0.546875 -2.382812 0.546875 -2.96875 C 0.546875 -3.539062 0.660156 -4.066406 0.890625 -4.546875 C 1.117188 -5.023438 1.429688 -5.40625 1.828125 -5.6875 C 2.234375 -5.96875 2.675781 -6.109375 3.15625 -6.109375 Z M 0.984375 -2.96875 C 0.984375 -2.476562 1.078125 -2.023438 1.265625 -1.609375 C 1.460938 -1.191406 1.726562 -0.863281 2.0625 -0.625 C 2.394531 -0.382812 2.757812 -0.265625 3.15625 -0.265625 C 3.550781 -0.265625 3.914062 -0.382812 4.25 -0.625 C 4.582031 -0.863281 4.84375 -1.191406 5.03125 -1.609375 C 5.226562 -2.023438 5.328125 -2.476562 5.328125 -2.96875 C 5.328125 -3.445312 5.234375 -3.890625 5.046875 -4.296875 C 4.859375 -4.710938 4.59375 -5.046875 4.25 -5.296875 C 3.914062 -5.546875 3.550781 -5.671875 3.15625 -5.671875 C 2.757812 -5.671875 2.394531 -5.546875 2.0625 -5.296875 C 1.726562 -5.054688 1.460938 -4.726562 1.265625 -4.3125 C 1.078125 -3.894531 0.984375 -3.445312 0.984375 -2.96875 Z M 0.984375 -2.96875 "/></g></g></g><g fill="#000000" fill-opacity="1"><g transform="translate(185.588129, 181.354595)"><g><path d="M 5.828125 -4.46875 C 5.828125 -4.289062 5.753906 -4.203125 5.609375 -4.203125 C 5.472656 -4.203125 5.40625 -4.289062 5.40625 -4.46875 L 5.40625 -5.53125 L 2.125 -5.53125 L 2.125 -3.3125 L 3.65625 -3.3125 L 3.65625 -3.8125 C 3.65625 -3.988281 3.726562 -4.078125 3.875 -4.078125 C 4.019531 -4.078125 4.09375 -3.988281 4.09375 -3.8125 L 4.09375 -2.375 C 4.09375 -2.195312 4.019531 -2.109375 3.875 -2.109375 C 3.726562 -2.109375 3.65625 -2.195312 3.65625 -2.375 L 3.65625 -2.875 L 2.125 -2.875 L 2.125 -0.421875 L 3.609375 -0.421875 C 3.785156 -0.421875 3.875 -0.351562 3.875 -0.21875 C 3.875 -0.0703125 3.785156 0 3.609375 0 L 1.09375 0 C 0.914062 0 0.828125 -0.0703125 0.828125 -0.21875 C 0.828125 -0.351562 0.914062 -0.421875 1.09375 -0.421875 L 1.6875 -0.421875 L 1.6875 -5.53125 L 1.09375 -5.53125 C 0.914062 -5.53125 0.828125 -5.601562 0.828125 -5.75 C 0.828125 -5.882812 0.914062 -5.953125 1.09375 -5.953125 L 5.828125 -5.953125 Z M 5.828125 -4.46875 "/></g></g></g><g fill="#000000" fill-opacity="1"><g transform="translate(193.013188, 181.354595)"><g/></g></g><g fill="#000000" fill-opacity="1"><g transform="translate(200.43826, 181.354595)"><g><path d="M 2.625 -5.75 C 2.625 -5.601562 2.535156 -5.53125 2.359375 -5.53125 L 1.765625 -5.53125 L 1.765625 -3.3125 L 4.609375 -3.3125 L 4.609375 -5.53125 L 4.015625 -5.53125 C 3.835938 -5.53125 3.75 -5.601562 3.75 -5.75 C 3.75 -5.882812 3.835938 -5.953125 4.015625 -5.953125 L 5.328125 -5.953125 C 5.492188 -5.953125 5.578125 -5.882812 5.578125 -5.75 C 5.578125 -5.601562 5.492188 -5.53125 5.328125 -5.53125 L 5.03125 -5.53125 L 5.03125 -0.421875 L 5.546875 -0.421875 C 5.710938 -0.421875 5.796875 -0.351562 5.796875 -0.21875 C 5.796875 -0.0703125 5.710938 0 5.546875 0 L 4.015625 0 C 3.835938 0 3.75 -0.0703125 3.75 -0.21875 C 3.75 -0.351562 3.835938 -0.421875 4.015625 -0.421875 L 4.609375 -0.421875 L 4.609375 -2.875 L 1.765625 -2.875 L 1.765625 -0.421875 L 2.359375 -0.421875 C 2.535156 -0.421875 2.625 -0.351562 2.625 -0.21875 C 2.625 -0.0703125 2.535156 0 2.359375 0 L 0.828125 0 C 0.648438 0 0.5625 -0.0703125 0.5625 -0.21875 C 0.5625 -0.351562 0.648438 -0.421875 0.828125 -0.421875 L 1.34375 -0.421875 L 1.34375 -5.53125 L 1.03125 -5.53125 C 0.957031 -5.53125 0.894531 -5.546875 0.84375 -5.578125 C 0.800781 -5.617188 0.78125 -5.675781 0.78125 -5.75 C 0.78125 -5.882812 0.867188 -5.953125 1.046875 -5.953125 L 2.359375 -5.953125 C 2.535156 -5.953125 2.625 -5.882812 2.625 -5.75 Z M 2.625 -5.75 "/></g></g></g><g fill="#000000" fill-opacity="1"><g transform="translate(207.863348, 181.354595)"><g><path d="M 5.25 -4.46875 C 5.25 -4.289062 5.179688 -4.203125 5.046875 -4.203125 C 4.898438 -4.203125 4.828125 -4.289062 4.828125 -4.46875 L 4.828125 -5.53125 L 1.765625 -5.53125 L 1.765625 -3.3125 L 3.296875 -3.3125 L 3.296875 -3.8125 C 3.296875 -3.988281 3.363281 -4.078125 3.5 -4.078125 C 3.644531 -4.078125 3.71875 -3.988281 3.71875 -3.8125 L 3.71875 -2.375 C 3.71875 -2.195312 3.644531 -2.109375 3.5 -2.109375 C 3.363281 -2.109375 3.296875 -2.195312 3.296875 -2.375 L 3.296875 -2.875 L 1.765625 -2.875 L 1.765625 -0.421875 L 5.046875 -0.421875 L 5.046875 -1.71875 C 5.046875 -1.894531 5.117188 -1.984375 5.265625 -1.984375 C 5.410156 -1.984375 5.484375 -1.894531 5.484375 -1.71875 L 5.484375 0 L 0.734375 0 C 0.554688 0 0.46875 -0.0703125 0.46875 -0.21875 C 0.46875 -0.351562 0.554688 -0.421875 0.734375 -0.421875 L 1.328125 -0.421875 L 1.328125 -5.53125 L 0.734375 -5.53125 C 0.554688 -5.53125 0.46875 -5.601562 0.46875 -5.75 C 0.46875 -5.882812 0.554688 -5.953125 0.734375 -5.953125 L 5.25 -5.953125 Z M 5.25 -4.46875 "/></g></g></g><g fill="#000000" fill-opacity="1"><g transform="translate(215.288405, 181.354595)"><g><path d="M 5.609375 -0.421875 L 5.953125 -0.421875 C 6.117188 -0.421875 6.203125 -0.351562 6.203125 -0.21875 C 6.203125 -0.0703125 6.117188 0 5.953125 0 L 4.3125 0 C 4.132812 0 4.046875 -0.0703125 4.046875 -0.21875 C 4.046875 -0.351562 4.132812 -0.421875 4.3125 -0.421875 L 5.15625 -0.421875 L 4.5625 -2 L 1.75 -2 L 1.171875 -0.421875 L 2.015625 -0.421875 C 2.191406 -0.421875 2.28125 -0.351562 2.28125 -0.21875 C 2.28125 -0.0703125 2.191406 0 2.015625 0 L 0.375 0 C 0.195312 0 0.109375 -0.0703125 0.109375 -0.21875 C 0.109375 -0.351562 0.191406 -0.421875 0.359375 -0.421875 L 0.71875 -0.421875 L 2.625 -5.53125 L 1.34375 -5.53125 C 1.15625 -5.53125 1.0625 -5.601562 1.0625 -5.75 C 1.0625 -5.882812 1.15625 -5.953125 1.34375 -5.953125 L 3.5 -5.953125 Z M 1.90625 -2.421875 L 4.40625 -2.421875 L 3.21875 -5.53125 L 3.0625 -5.53125 Z M 1.90625 -2.421875 "/></g></g></g><g fill="#000000" fill-opacity="1"><g transform="translate(222.713464, 181.354595)"><g><path d="M 3.71875 -5.75 C 3.71875 -5.601562 3.625 -5.53125 3.4375 -5.53125 L 2.40625 -5.53125 L 2.40625 -0.421875 L 5.25 -0.421875 L 5.25 -2.15625 C 5.25 -2.332031 5.320312 -2.421875 5.46875 -2.421875 C 5.613281 -2.421875 5.6875 -2.332031 5.6875 -2.15625 L 5.6875 0 L 0.9375 0 C 0.757812 0 0.671875 -0.0703125 0.671875 -0.21875 C 0.671875 -0.351562 0.757812 -0.421875 0.9375 -0.421875 L 1.984375 -0.421875 L 1.984375 -5.53125 L 0.9375 -5.53125 C 0.757812 -5.53125 0.671875 -5.601562 0.671875 -5.75 C 0.671875 -5.882812 0.757812 -5.953125 0.9375 -5.953125 L 3.4375 -5.953125 C 3.625 -5.953125 3.71875 -5.882812 3.71875 -5.75 Z M 3.71875 -5.75 "/></g></g></g><g fill="#000000" fill-opacity="1"><g transform="translate(230.13855, 181.354595)"><g><path d="M 5.546875 -4.03125 C 5.546875 -3.851562 5.472656 -3.765625 5.328125 -3.765625 C 5.179688 -3.765625 5.109375 -3.851562 5.109375 -4.03125 L 5.109375 -5.53125 L 3.359375 -5.53125 L 3.359375 -0.421875 L 4.5 -0.421875 C 4.675781 -0.421875 4.765625 -0.351562 4.765625 -0.21875 C 4.765625 -0.0703125 4.675781 0 4.5 0 L 1.8125 0 C 1.625 0 1.53125 -0.0703125 1.53125 -0.21875 C 1.53125 -0.351562 1.625 -0.421875 1.8125 -0.421875 L 2.9375 -0.421875 L 2.9375 -5.53125 L 1.171875 -5.53125 L 1.171875 -4.03125 C 1.171875 -3.851562 1.101562 -3.765625 0.96875 -3.765625 C 0.820312 -3.765625 0.75 -3.851562 0.75 -4.03125 L 0.75 -5.953125 L 5.546875 -5.953125 Z M 5.546875 -4.03125 "/></g></g></g><g fill="#000000" fill-opacity="1"><g transform="translate(237.563624, 181.354595)"><g><path d="M 2.625 -5.75 C 2.625 -5.601562 2.535156 -5.53125 2.359375 -5.53125 L 1.765625 -5.53125 L 1.765625 -3.3125 L 4.609375 -3.3125 L 4.609375 -5.53125 L 4.015625 -5.53125 C 3.835938 -5.53125 3.75 -5.601562 3.75 -5.75 C 3.75 -5.882812 3.835938 -5.953125 4.015625 -5.953125 L 5.328125 -5.953125 C 5.492188 -5.953125 5.578125 -5.882812 5.578125 -5.75 C 5.578125 -5.601562 5.492188 -5.53125 5.328125 -5.53125 L 5.03125 -5.53125 L 5.03125 -0.421875 L 5.546875 -0.421875 C 5.710938 -0.421875 5.796875 -0.351562 5.796875 -0.21875 C 5.796875 -0.0703125 5.710938 0 5.546875 0 L 4.015625 0 C 3.835938 0 3.75 -0.0703125 3.75 -0.21875 C 3.75 -0.351562 3.835938 -0.421875 4.015625 -0.421875 L 4.609375 -0.421875 L 4.609375 -2.875 L 1.765625 -2.875 L 1.765625 -0.421875 L 2.359375 -0.421875 C 2.535156 -0.421875 2.625 -0.351562 2.625 -0.21875 C 2.625 -0.0703125 2.535156 0 2.359375 0 L 0.828125 0 C 0.648438 0 0.5625 -0.0703125 0.5625 -0.21875 C 0.5625 -0.351562 0.648438 -0.421875 0.828125 -0.421875 L 1.34375 -0.421875 L 1.34375 -5.53125 L 1.03125 -5.53125 C 0.957031 -5.53125 0.894531 -5.546875 0.84375 -5.578125 C 0.800781 -5.617188 0.78125 -5.675781 0.78125 -5.75 C 0.78125 -5.882812 0.867188 -5.953125 1.046875 -5.953125 L 2.359375 -5.953125 C 2.535156 -5.953125 2.625 -5.882812 2.625 -5.75 Z M 2.625 -5.75 "/></g></g></g><g fill="#000000" fill-opacity="1"><g transform="translate(244.988681, 181.354595)"><g><path d="M 2.28125 -5.75 C 2.28125 -5.601562 2.1875 -5.53125 2 -5.53125 L 1.5625 -5.53125 L 3.15625 -3.125 L 4.734375 -5.53125 L 4.296875 -5.53125 C 4.109375 -5.53125 4.015625 -5.601562 4.015625 -5.75 C 4.015625 -5.882812 4.109375 -5.953125 4.296875 -5.953125 L 5.5 -5.953125 C 5.675781 -5.953125 5.765625 -5.882812 5.765625 -5.75 C 5.765625 -5.601562 5.679688 -5.53125 5.515625 -5.53125 L 5.234375 -5.53125 L 3.375 -2.6875 L 3.375 -0.421875 L 4.515625 -0.421875 C 4.679688 -0.421875 4.765625 -0.351562 4.765625 -0.21875 C 4.765625 -0.0703125 4.679688 0 4.515625 0 L 1.8125 0 C 1.632812 0 1.546875 -0.0703125 1.546875 -0.21875 C 1.546875 -0.351562 1.632812 -0.421875 1.8125 -0.421875 L 2.9375 -0.421875 L 2.9375 -2.6875 L 1.0625 -5.53125 L 0.78125 -5.53125 C 0.695312 -5.53125 0.628906 -5.546875 0.578125 -5.578125 C 0.535156 -5.617188 0.515625 -5.675781 0.515625 -5.75 C 0.515625 -5.882812 0.609375 -5.953125 0.796875 -5.953125 L 2 -5.953125 C 2.1875 -5.953125 2.28125 -5.882812 2.28125 -5.75 Z M 2.28125 -5.75 "/></g></g></g><g fill="#000000" fill-opacity="1"><g transform="translate(252.413755, 181.354595)"><g/></g></g><g fill="#000000" fill-opacity="1"><g transform="translate(259.838841, 181.354595)"><g><path d="M 5.828125 -4.46875 C 5.828125 -4.289062 5.753906 -4.203125 5.609375 -4.203125 C 5.472656 -4.203125 5.40625 -4.289062 5.40625 -4.46875 L 5.40625 -5.53125 L 2.125 -5.53125 L 2.125 -3.3125 L 3.65625 -3.3125 L 3.65625 -3.8125 C 3.65625 -3.988281 3.726562 -4.078125 3.875 -4.078125 C 4.019531 -4.078125 4.09375 -3.988281 4.09375 -3.8125 L 4.09375 -2.375 C 4.09375 -2.195312 4.019531 -2.109375 3.875 -2.109375 C 3.726562 -2.109375 3.65625 -2.195312 3.65625 -2.375 L 3.65625 -2.875 L 2.125 -2.875 L 2.125 -0.421875 L 3.609375 -0.421875 C 3.785156 -0.421875 3.875 -0.351562 3.875 -0.21875 C 3.875 -0.0703125 3.785156 0 3.609375 0 L 1.09375 0 C 0.914062 0 0.828125 -0.0703125 0.828125 -0.21875 C 0.828125 -0.351562 0.914062 -0.421875 1.09375 -0.421875 L 1.6875 -0.421875 L 1.6875 -5.53125 L 1.09375 -5.53125 C 0.914062 -5.53125 0.828125 -5.601562 0.828125 -5.75 C 0.828125 -5.882812 0.914062 -5.953125 1.09375 -5.953125 L 5.828125 -5.953125 Z M 5.828125 -4.46875 "/></g></g></g><g fill="#000000" fill-opacity="1"><g transform="translate(267.263901, 181.354595)"><g><path d="M 5.25 -4.46875 C 5.25 -4.289062 5.179688 -4.203125 5.046875 -4.203125 C 4.898438 -4.203125 4.828125 -4.289062 4.828125 -4.46875 L 4.828125 -5.53125 L 1.765625 -5.53125 L 1.765625 -3.3125 L 3.296875 -3.3125 L 3.296875 -3.8125 C 3.296875 -3.988281 3.363281 -4.078125 3.5 -4.078125 C 3.644531 -4.078125 3.71875 -3.988281 3.71875 -3.8125 L 3.71875 -2.375 C 3.71875 -2.195312 3.644531 -2.109375 3.5 -2.109375 C 3.363281 -2.109375 3.296875 -2.195312 3.296875 -2.375 L 3.296875 -2.875 L 1.765625 -2.875 L 1.765625 -0.421875 L 5.046875 -0.421875 L 5.046875 -1.71875 C 5.046875 -1.894531 5.117188 -1.984375 5.265625 -1.984375 C 5.410156 -1.984375 5.484375 -1.894531 5.484375 -1.71875 L 5.484375 0 L 0.734375 0 C 0.554688 0 0.46875 -0.0703125 0.46875 -0.21875 C 0.46875 -0.351562 0.554688 -0.421875 0.734375 -0.421875 L 1.328125 -0.421875 L 1.328125 -5.53125 L 0.734375 -5.53125 C 0.554688 -5.53125 0.46875 -5.601562 0.46875 -5.75 C 0.46875 -5.882812 0.554688 -5.953125 0.734375 -5.953125 L 5.25 -5.953125 Z M 5.25 -4.46875 "/></g></g></g><g fill="#000000" fill-opacity="1"><g transform="translate(274.688958, 181.354595)"><g><path d="M 5.25 -4.46875 C 5.25 -4.289062 5.179688 -4.203125 5.046875 -4.203125 C 4.898438 -4.203125 4.828125 -4.289062 4.828125 -4.46875 L 4.828125 -5.53125 L 1.765625 -5.53125 L 1.765625 -3.3125 L 3.296875 -3.3125 L 3.296875 -3.8125 C 3.296875 -3.988281 3.363281 -4.078125 3.5 -4.078125 C 3.644531 -4.078125 3.71875 -3.988281 3.71875 -3.8125 L 3.71875 -2.375 C 3.71875 -2.195312 3.644531 -2.109375 3.5 -2.109375 C 3.363281 -2.109375 3.296875 -2.195312 3.296875 -2.375 L 3.296875 -2.875 L 1.765625 -2.875 L 1.765625 -0.421875 L 5.046875 -0.421875 L 5.046875 -1.71875 C 5.046875 -1.894531 5.117188 -1.984375 5.265625 -1.984375 C 5.410156 -1.984375 5.484375 -1.894531 5.484375 -1.71875 L 5.484375 0 L 0.734375 0 C 0.554688 0 0.46875 -0.0703125 0.46875 -0.21875 C 0.46875 -0.351562 0.554688 -0.421875 0.734375 -0.421875 L 1.328125 -0.421875 L 1.328125 -5.53125 L 0.734375 -5.53125 C 0.554688 -5.53125 0.46875 -5.601562 0.46875 -5.75 C 0.46875 -5.882812 0.554688 -5.953125 0.734375 -5.953125 L 5.25 -5.953125 Z M 5.25 -4.46875 "/></g></g></g><g fill="#000000" fill-opacity="1"><g transform="translate(282.114015, 181.354595)"><g><path d="M 5.546875 -4.03125 C 5.546875 -3.851562 5.472656 -3.765625 5.328125 -3.765625 C 5.179688 -3.765625 5.109375 -3.851562 5.109375 -4.03125 L 5.109375 -5.53125 L 3.359375 -5.53125 L 3.359375 -0.421875 L 4.5 -0.421875 C 4.675781 -0.421875 4.765625 -0.351562 4.765625 -0.21875 C 4.765625 -0.0703125 4.675781 0 4.5 0 L 1.8125 0 C 1.625 0 1.53125 -0.0703125 1.53125 -0.21875 C 1.53125 -0.351562 1.625 -0.421875 1.8125 -0.421875 L 2.9375 -0.421875 L 2.9375 -5.53125 L 1.171875 -5.53125 L 1.171875 -4.03125 C 1.171875 -3.851562 1.101562 -3.765625 0.96875 -3.765625 C 0.820312 -3.765625 0.75 -3.851562 0.75 -4.03125 L 0.75 -5.953125 L 5.546875 -5.953125 Z M 5.546875 -4.03125 "/></g></g></g><g fill="#000000" fill-opacity="1"><g transform="translate(289.539103, 181.354595)"><g><path d="M 2.375 -3.8125 C 2.351562 -3.707031 2.320312 -3.617188 2.28125 -3.546875 C 2.238281 -3.484375 2.164062 -3.453125 2.0625 -3.453125 C 1.875 -3.453125 1.765625 -3.570312 1.734375 -3.8125 L 1.375 -6.28125 L 2.734375 -6.28125 Z M 4.5625 -3.8125 C 4.53125 -3.570312 4.421875 -3.453125 4.234375 -3.453125 C 4.117188 -3.453125 4.039062 -3.488281 4 -3.5625 C 3.96875 -3.644531 3.9375 -3.75 3.90625 -3.875 L 3.5625 -6.28125 L 4.921875 -6.28125 Z M 4.5625 -3.8125 "/></g></g></g><g fill="#000000" fill-opacity="1"><g transform="translate(143.737149, 151.423745)"><g><path d="M 8.71875 -14.453125 L 8.71875 -4.46875 C 8.71875 -3.019531 8.316406 -1.894531 7.515625 -1.09375 C 6.722656 -0.289062 5.625 0.109375 4.21875 0.109375 C 2.507812 0.109375 1.085938 -0.585938 -0.046875 -1.984375 L 1.109375 -3.84375 C 2.085938 -2.78125 3.113281 -2.25 4.1875 -2.25 C 4.851562 -2.25 5.363281 -2.441406 5.71875 -2.828125 C 6.082031 -3.222656 6.265625 -3.796875 6.265625 -4.546875 L 6.265625 -12.265625 L 1.265625 -12.265625 L 1.265625 -14.453125 Z M 8.71875 -14.453125 "/></g></g></g><g fill="#000000" fill-opacity="1"><g transform="translate(154.667062, 151.423745)"><g><path d="M 17.1875 0 L 14.9375 0 L 14.90625 -10.796875 L 10.34375 -1.515625 L 8.765625 -1.515625 L 4.1875 -10.796875 L 4.1875 0 L 1.90625 0 L 1.90625 -14.453125 L 4.796875 -14.453125 L 9.5625 -4.859375 L 14.3125 -14.453125 L 17.1875 -14.453125 Z M 17.1875 0 "/></g></g></g><g fill="#000000" fill-opacity="1"><g transform="translate(174.398681, 151.423745)"><g/></g></g><g fill="#000000" fill-opacity="1"><g transform="translate(180.349223, 151.423745)"><g><path d="M 17.1875 0 L 14.9375 0 L 14.90625 -10.796875 L 10.34375 -1.515625 L 8.765625 -1.515625 L 4.1875 -10.796875 L 4.1875 0 L 1.90625 0 L 1.90625 -14.453125 L 4.796875 -14.453125 L 9.5625 -4.859375 L 14.3125 -14.453125 L 17.1875 -14.453125 Z M 17.1875 0 "/></g></g></g><g fill="#000000" fill-opacity="1"><g transform="translate(200.080842, 151.423745)"><g><path d="M 2.90625 -12.421875 C 4.382812 -13.816406 6.203125 -14.515625 8.359375 -14.515625 C 10.523438 -14.515625 12.34375 -13.816406 13.8125 -12.421875 C 15.289062 -11.023438 16.03125 -9.289062 16.03125 -7.21875 C 16.03125 -5.15625 15.289062 -3.414062 13.8125 -2 C 12.34375 -0.59375 10.523438 0.109375 8.359375 0.109375 C 6.203125 0.109375 4.382812 -0.59375 2.90625 -2 C 1.4375 -3.414062 0.703125 -5.15625 0.703125 -7.21875 C 0.703125 -9.289062 1.4375 -11.023438 2.90625 -12.421875 Z M 8.390625 -12.328125 C 6.953125 -12.328125 5.722656 -11.832031 4.703125 -10.84375 C 3.691406 -9.863281 3.1875 -8.65625 3.1875 -7.21875 C 3.1875 -5.789062 3.695312 -4.578125 4.71875 -3.578125 C 5.75 -2.585938 6.972656 -2.09375 8.390625 -2.09375 C 9.804688 -2.09375 11.015625 -2.585938 12.015625 -3.578125 C 13.023438 -4.578125 13.53125 -5.789062 13.53125 -7.21875 C 13.53125 -8.65625 13.023438 -9.863281 12.015625 -10.84375 C 11.015625 -11.832031 9.804688 -12.328125 8.390625 -12.328125 Z M 8.390625 -12.328125 "/></g></g></g><g fill="#000000" fill-opacity="1"><g transform="translate(217.436412, 151.423745)"><g><path d="M 11.78125 -12.265625 L 7.1875 -12.265625 L 7.1875 0 L 4.75 0 L 4.75 -12.265625 L 0.1875 -12.265625 L 0.1875 -14.453125 L 11.78125 -14.453125 Z M 11.78125 -12.265625 "/></g></g></g><g fill="#000000" fill-opacity="1"><g transform="translate(230.01923, 151.423745)"><g><path d="M 6.65625 -14.5625 C 8.519531 -14.5625 10.207031 -14.066406 11.71875 -13.078125 L 10.703125 -10.921875 C 9.222656 -11.816406 7.8125 -12.265625 6.46875 -12.265625 C 5.738281 -12.265625 5.160156 -12.132812 4.734375 -11.875 C 4.316406 -11.613281 4.109375 -11.238281 4.109375 -10.75 C 4.109375 -10.269531 4.300781 -9.863281 4.6875 -9.53125 C 5.070312 -9.195312 5.550781 -8.945312 6.125 -8.78125 C 6.707031 -8.625 7.335938 -8.425781 8.015625 -8.1875 C 8.691406 -7.945312 9.316406 -7.691406 9.890625 -7.421875 C 10.472656 -7.148438 10.953125 -6.726562 11.328125 -6.15625 C 11.703125 -5.59375 11.890625 -4.90625 11.890625 -4.09375 C 11.890625 -2.820312 11.382812 -1.804688 10.375 -1.046875 C 9.363281 -0.296875 8.050781 0.078125 6.4375 0.078125 C 5.34375 0.078125 4.273438 -0.125 3.234375 -0.53125 C 2.203125 -0.945312 1.300781 -1.503906 0.53125 -2.203125 L 1.59375 -4.3125 C 2.320312 -3.644531 3.125 -3.125 4 -2.75 C 4.875 -2.382812 5.703125 -2.203125 6.484375 -2.203125 C 7.335938 -2.203125 8 -2.359375 8.46875 -2.671875 C 8.945312 -2.984375 9.1875 -3.414062 9.1875 -3.96875 C 9.1875 -4.457031 8.992188 -4.867188 8.609375 -5.203125 C 8.222656 -5.546875 7.738281 -5.796875 7.15625 -5.953125 C 6.582031 -6.117188 5.957031 -6.3125 5.28125 -6.53125 C 4.613281 -6.757812 3.988281 -7 3.40625 -7.25 C 2.832031 -7.507812 2.351562 -7.921875 1.96875 -8.484375 C 1.582031 -9.054688 1.390625 -9.738281 1.390625 -10.53125 C 1.390625 -11.757812 1.867188 -12.738281 2.828125 -13.46875 C 3.796875 -14.195312 5.070312 -14.5625 6.65625 -14.5625 Z M 6.65625 -14.5625 "/></g></g></g><g fill="#000000" fill-opacity="1"><g transform="translate(243.490477, 151.423745)"><g><path d="M 11.234375 -3.265625 L 3.953125 -3.265625 L 2.5625 0 L 0.015625 0 L 6.40625 -14.453125 L 8.90625 -14.453125 L 15.21875 0 L 12.625 0 Z M 10.3125 -5.4375 L 7.578125 -11.859375 L 4.859375 -5.4375 Z M 10.3125 -5.4375 "/></g></g></g><g fill="#000000" fill-opacity="1"><g transform="translate(259.358439, 151.423745)"><g><path d="M 1.90625 -14.453125 L 7.65625 -14.453125 C 9.476562 -14.453125 10.890625 -14.019531 11.890625 -13.15625 C 12.890625 -12.300781 13.390625 -11.085938 13.390625 -9.515625 C 13.390625 -7.878906 12.890625 -6.609375 11.890625 -5.703125 C 10.890625 -4.804688 9.476562 -4.359375 7.65625 -4.359375 L 4.34375 -4.359375 L 4.34375 0 L 1.90625 0 Z M 4.34375 -12.265625 L 4.34375 -6.546875 L 7.5625 -6.546875 C 9.882812 -6.546875 11.046875 -7.515625 11.046875 -9.453125 C 11.046875 -11.328125 9.882812 -12.265625 7.5625 -12.265625 Z M 4.34375 -12.265625 "/></g></g></g><g fill="#000000" fill-opacity="1"><g transform="translate(273.883413, 151.423745)"><g><path d="M 4.34375 0 L 1.90625 0 L 1.90625 -14.453125 L 4.34375 -14.453125 Z M 4.34375 0 "/></g></g></g><g fill="#000000" fill-opacity="1"><g transform="translate(166.344928, 167.329122)"><g><path d="M 1.15625 -8.84375 L 4.6875 -8.84375 C 5.800781 -8.84375 6.660156 -8.578125 7.265625 -8.046875 C 7.878906 -7.523438 8.1875 -6.785156 8.1875 -5.828125 C 8.1875 -4.828125 7.878906 -4.050781 7.265625 -3.5 C 6.660156 -2.945312 5.800781 -2.671875 4.6875 -2.671875 L 2.65625 -2.671875 L 2.65625 0 L 1.15625 0 Z M 2.65625 -7.515625 L 2.65625 -4 L 4.625 -4 C 6.050781 -4 6.765625 -4.597656 6.765625 -5.796875 C 6.765625 -6.941406 6.050781 -7.515625 4.625 -7.515625 Z M 2.65625 -7.515625 "/></g></g></g><g fill="#000000" fill-opacity="1"><g transform="translate(177.035847, 167.329122)"><g><path d="M 1.78125 -7.609375 C 2.6875 -8.460938 3.800781 -8.890625 5.125 -8.890625 C 6.445312 -8.890625 7.554688 -8.460938 8.453125 -7.609375 C 9.359375 -6.753906 9.8125 -5.691406 9.8125 -4.421875 C 9.8125 -3.160156 9.359375 -2.097656 8.453125 -1.234375 C 7.554688 -0.367188 6.445312 0.0625 5.125 0.0625 C 3.800781 0.0625 2.6875 -0.367188 1.78125 -1.234375 C 0.882812 -2.097656 0.4375 -3.160156 0.4375 -4.421875 C 0.4375 -5.691406 0.882812 -6.753906 1.78125 -7.609375 Z M 5.125 -7.546875 C 4.25 -7.546875 3.5 -7.242188 2.875 -6.640625 C 2.257812 -6.035156 1.953125 -5.296875 1.953125 -4.421875 C 1.953125 -3.546875 2.265625 -2.800781 2.890625 -2.1875 C 3.515625 -1.582031 4.257812 -1.28125 5.125 -1.28125 C 6 -1.28125 6.742188 -1.582031 7.359375 -2.1875 C 7.972656 -2.800781 8.28125 -3.546875 8.28125 -4.421875 C 8.28125 -5.296875 7.972656 -6.035156 7.359375 -6.640625 C 6.742188 -7.242188 6 -7.546875 5.125 -7.546875 Z M 5.125 -7.546875 "/></g></g></g><g fill="#000000" fill-opacity="1"><g transform="translate(189.457747, 167.329122)"><g><path d="M 1.15625 -8.84375 L 4.796875 -8.84375 C 6.117188 -8.84375 7.207031 -8.425781 8.0625 -7.59375 C 8.925781 -6.757812 9.359375 -5.703125 9.359375 -4.421875 C 9.359375 -3.140625 8.925781 -2.082031 8.0625 -1.25 C 7.195312 -0.414062 6.09375 0 4.75 0 L 1.15625 0 Z M 2.65625 -7.515625 L 2.65625 -1.34375 L 4.828125 -1.34375 C 5.691406 -1.34375 6.410156 -1.628906 6.984375 -2.203125 C 7.566406 -2.785156 7.859375 -3.519531 7.859375 -4.40625 C 7.859375 -5.300781 7.5625 -6.039062 6.96875 -6.625 C 6.375 -7.21875 5.640625 -7.515625 4.765625 -7.515625 Z M 2.65625 -7.515625 "/></g></g></g><g fill="#000000" fill-opacity="1"><g transform="translate(201.437426, 167.329122)"><g><path d="M 2.65625 0 L 1.15625 0 L 1.15625 -8.84375 L 2.65625 -8.84375 Z M 2.65625 0 "/></g></g></g><g fill="#000000" fill-opacity="1"><g transform="translate(207.440791, 167.329122)"><g><path d="M 6.875 -2 L 2.421875 -2 L 1.5625 0 L 0.015625 0 L 3.921875 -8.84375 L 5.453125 -8.84375 L 9.3125 0 L 7.71875 0 Z M 6.3125 -3.328125 L 4.640625 -7.25 L 2.96875 -3.328125 Z M 6.3125 -3.328125 "/></g></g></g><g fill="#000000" fill-opacity="1"><g transform="translate(218.952978, 167.329122)"><g><path d="M 7.203125 -7.515625 L 4.40625 -7.515625 L 4.40625 0 L 2.90625 0 L 2.90625 -7.515625 L 0.109375 -7.515625 L 0.109375 -8.84375 L 7.203125 -8.84375 Z M 7.203125 -7.515625 "/></g></g></g><g fill="#000000" fill-opacity="1"><g transform="translate(228.456216, 167.329122)"><g><path d="M 6.78125 0 L 5.15625 -2.6875 C 5.070312 -2.675781 4.9375 -2.671875 4.75 -2.671875 L 2.65625 -2.671875 L 2.65625 0 L 1.15625 0 L 1.15625 -8.84375 L 4.75 -8.84375 C 5.882812 -8.84375 6.757812 -8.578125 7.375 -8.046875 C 8 -7.523438 8.3125 -6.785156 8.3125 -5.828125 C 8.3125 -5.117188 8.15625 -4.519531 7.84375 -4.03125 C 7.53125 -3.539062 7.078125 -3.179688 6.484375 -2.953125 L 8.46875 0 Z M 2.65625 -4 L 4.75 -4 C 6.1875 -4 6.90625 -4.597656 6.90625 -5.796875 C 6.90625 -6.941406 6.1875 -7.515625 4.75 -7.515625 L 2.65625 -7.515625 Z M 2.65625 -4 "/></g></g></g><g fill="#000000" fill-opacity="1"><g transform="translate(239.778874, 167.329122)"><g><path d="M 2.65625 0 L 1.15625 0 L 1.15625 -8.84375 L 2.65625 -8.84375 Z M 2.65625 0 "/></g></g></g><g fill="#000000" fill-opacity="1"><g transform="translate(245.782239, 167.329122)"><g><path d="M 4.0625 -8.90625 C 5.21875 -8.90625 6.253906 -8.601562 7.171875 -8 L 6.546875 -6.6875 C 5.648438 -7.238281 4.785156 -7.515625 3.953125 -7.515625 C 3.503906 -7.515625 3.148438 -7.429688 2.890625 -7.265625 C 2.640625 -7.109375 2.515625 -6.878906 2.515625 -6.578125 C 2.515625 -6.285156 2.628906 -6.035156 2.859375 -5.828125 C 3.097656 -5.628906 3.394531 -5.476562 3.75 -5.375 C 4.101562 -5.28125 4.488281 -5.160156 4.90625 -5.015625 C 5.320312 -4.867188 5.703125 -4.710938 6.046875 -4.546875 C 6.398438 -4.378906 6.691406 -4.117188 6.921875 -3.765625 C 7.160156 -3.421875 7.28125 -3 7.28125 -2.5 C 7.28125 -1.726562 6.96875 -1.109375 6.34375 -0.640625 C 5.726562 -0.179688 4.925781 0.046875 3.9375 0.046875 C 3.269531 0.046875 2.617188 -0.078125 1.984375 -0.328125 C 1.347656 -0.578125 0.796875 -0.921875 0.328125 -1.359375 L 0.96875 -2.640625 C 1.414062 -2.222656 1.90625 -1.90625 2.4375 -1.6875 C 2.976562 -1.46875 3.488281 -1.359375 3.96875 -1.359375 C 4.488281 -1.359375 4.894531 -1.453125 5.1875 -1.640625 C 5.476562 -1.828125 5.625 -2.085938 5.625 -2.421875 C 5.625 -2.722656 5.503906 -2.976562 5.265625 -3.1875 C 5.035156 -3.394531 4.742188 -3.546875 4.390625 -3.640625 C 4.035156 -3.742188 3.648438 -3.863281 3.234375 -4 C 2.816406 -4.132812 2.429688 -4.28125 2.078125 -4.4375 C 1.734375 -4.59375 1.441406 -4.84375 1.203125 -5.1875 C 0.960938 -5.539062 0.84375 -5.960938 0.84375 -6.453125 C 0.84375 -7.203125 1.132812 -7.796875 1.71875 -8.234375 C 2.3125 -8.679688 3.09375 -8.90625 4.0625 -8.90625 Z M 4.0625 -8.90625 "/></g></g></g><g fill="#000000" fill-opacity="1"><g transform="translate(255.828777, 167.329122)"><g><path d="M 7.203125 -7.515625 L 4.40625 -7.515625 L 4.40625 0 L 2.90625 0 L 2.90625 -7.515625 L 0.109375 -7.515625 L 0.109375 -8.84375 L 7.203125 -8.84375 Z M 7.203125 -7.515625 "/></g></g></g><g fill="#000000" fill-opacity="1"><g transform="translate(265.343048, 167.329122)"><g/></g></g><g clip-path="url(#1faf42e38b)"><g clip-path="url(#40a9dbb150)"><g clip-path="url(#9312779c9f)"><g clip-path="url(#6ae359570a)"><path fill="#39b54a" d="M 99.878906 184.621094 C 98.953125 186.539062 96.894531 189.976562 93.003906 191.675781 C 86.621094 194.460938 77.777344 191.484375 71.964844 183.761719 C 77.292969 177.5 85.125 174.941406 91.574219 177.242188 C 95.917969 178.796875 98.421875 182.117188 99.492188 183.789062 C 97.03125 183.25 94.082031 182.800781 90.738281 182.695312 C 85.582031 182.527344 81.199219 183.21875 77.910156 184.015625 C 81.679688 183.695312 85.925781 183.554688 90.5625 183.761719 C 93.90625 183.910156 97.023438 184.222656 99.878906 184.621094 Z M 99.878906 184.621094 " fill-opacity="1" fill-rule="nonzero"/></g></g></g></g><g clip-path="url(#a224810d04)"><g clip-path="url(#566617af54)"><g clip-path="url(#99762956e4)"><g clip-path="url(#4a163dae6d)"><path fill="#39b54a" d="M 101.714844 186.4375 C 103.039062 187.285156 105.375 189.09375 106.300781 192.085938 C 107.8125 196.996094 104.929688 203.1875 98.832031 206.738281 C 94.699219 202.285156 93.46875 196.339844 95.667969 191.835938 C 97.148438 188.804688 99.773438 187.277344 101.074219 186.640625 C 100.484375 188.390625 99.917969 190.503906 99.570312 192.933594 C 99.035156 196.6875 99.183594 199.949219 99.496094 202.421875 C 99.570312 199.640625 99.8125 196.527344 100.335938 193.160156 C 100.714844 190.730469 101.191406 188.484375 101.714844 186.4375 Z M 101.714844 186.4375 " fill-opacity="1" fill-rule="nonzero"/></g></g></g></g></svg>